<?xml version="1.0" encoding="utf-8"?>
<!-- Generator: Adobe Illustrator 27.8.1, SVG Export Plug-In . SVG Version: 6.00 Build 0)  -->
<svg version="1.1" id="Layer_1" xmlns="http://www.w3.org/2000/svg" xmlns:xlink="http://www.w3.org/1999/xlink" x="0px" y="0px"
	 viewBox="0 0 40.4 40.4" style="enable-background:new 0 0 40.4 40.4;" xml:space="preserve">
<style type="text/css">
	.st0{fill:#333333;}
</style>
<path class="st0" d="M40.2,0.2c0,0-12.5-2-21.5,7.1c-4.9,4.9-8.2,12.3-9.1,17.4v0c1.3,0.4,2.6,1.2,3.7,2.4c1.1,1.1,1.9,2.5,2.4,3.7
	h0c5.1-0.9,12.5-4.1,17.4-9C42.2,12.7,40.2,0.2,40.2,0.2z M28.6,17.8c-1.7,1.7-4.4,1.7-6,0s-1.7-4.4,0-6s4.4-1.7,6,0
	S30.3,16.1,28.6,17.8z"/>
<path class="st0" d="M16.2,13.2L4.4,16.6c-0.9,0.3-1.6,1-1.7,2l-1.4,10l4.4-6.5l6.2,0.4C12.8,19.5,14.3,16.2,16.2,13.2L16.2,13.2z"
	/>
<path class="st0" d="M23.8,36l3.4-11.9c-3,2-6.2,3.5-9.3,4.4l0.4,6.2l-6.5,4.4l10-1.4C22.8,37.6,23.5,36.9,23.8,36L23.8,36z"/>
<path class="st0" d="M13.1,31.1c-1.6,1.6-3,2.2-5.6,1.7c-0.4-2.5,0.2-4,1.7-5.5C1.6,28.6,2.5,35.5,0,40.4
	C4.9,37.9,11.8,38.9,13.1,31.1L13.1,31.1z"/>
</svg>
